<?xml version="1.0" encoding="utf-8"?>
<!-- Generator: Adobe Illustrator 21.1.0, SVG Export Plug-In . SVG Version: 6.00 Build 0)  -->
<svg version="1.1" id="_x31_" xmlns="http://www.w3.org/2000/svg" xmlns:xlink="http://www.w3.org/1999/xlink" x="0px" y="0px"
	 viewBox="0 0 126 51" style="enable-background:new 0 0 126 51;" xml:space="preserve">
<style type="text/css">
	.st0{fill:#0046B9;}
	.st1{fill:#FFFFFF;}
</style>
<g>
	<path class="st0" d="M0,40V10.3c5.2,1.1,9.3,4.1,12.3,8.9c3-4.9,7-7.4,11.4-8.8v5c-4.8,2-8.2,5.7-8.9,12.7H9.9
		c-0.2-4.5-2-8.1-5.2-10.4V40L0,40L0,40z"/>
	<path class="st0" d="M28.5,15.8l0,4.5c-4.3,0-7.7,3.8-7.7,7.7c0,3.9,3,7.7,7.7,7.7h10.8v4.8H28.7c-8,0-12.7-6.2-12.8-12.4
		C15.9,22,20.6,15.8,28.5,15.8L28.5,15.8L28.5,15.8z"/>
	<polygon class="st0" points="40.3,10.4 40.3,15.1 35.1,15.1 35.1,20.2 30.2,20.2 30.2,15.1 25.2,15.1 25.2,10.4 30.2,10.4 
		30.2,5.3 35.1,5.3 35.1,10.4 	"/>
	<path class="st0" d="M4.4,42v3.6H3.2v-1.7l-0.5,1.7h-1l-0.5-1.7v1.7H0V42h1.7l0.5,1.7L2.7,42H4.4L4.4,42z M31.6,42
		c0.1,0,0.2,0,0.2,0c0.4,0,0.7,0.3,0.9,0.6c0,0.1,0.1,0.2,0.1,0.3c0,0.3-0.1,0.6-0.4,0.7c0.3,0.1,0.5,0.3,0.5,0.6
		c0.1,0.4-0.1,0.8-0.5,1.1c-0.3,0.2-0.6,0.2-0.9,0.2c-0.1,0-0.2,0-0.3,0c-0.7,0-1.3,0-2,0V42c0.7,0,1.3,0,2,0
		C31.4,42,31.5,42,31.6,42L31.6,42z M30.6,44.1v0.5c0.2,0,0.5,0,0.7,0c0.1,0,0.4,0,0.4-0.2c0-0.1,0-0.1,0-0.2
		c-0.1-0.2-0.3-0.2-0.5-0.2C31,44.1,30.8,44.1,30.6,44.1L30.6,44.1L30.6,44.1z M30.6,42.9v0.4c0.2,0,0.5,0,0.7,0c0.1,0,0.1,0,0.2,0
		c0.1,0,0.1-0.2,0-0.3c-0.1-0.1-0.3-0.1-0.4-0.1C30.9,42.9,30.8,42.9,30.6,42.9L30.6,42.9L30.6,42.9z M26.4,44.5v1.1h-1.3V42
		c0.6,0,1.3,0,1.9,0c0.1,0,0.3,0,0.4,0c0.4,0,0.8,0.2,1,0.6c0.2,0.3,0.2,0.7,0.1,1.1c-0.1,0.3-0.3,0.4-0.5,0.6
		c-0.3,0.2-0.6,0.2-1,0.2C26.9,44.5,26.7,44.5,26.4,44.5L26.4,44.5L26.4,44.5z M26.4,43v0.6c0.2,0,0.4,0,0.5,0
		c0.2,0,0.4-0.1,0.4-0.3c0-0.1,0-0.1,0-0.2C27.3,43,27.1,43,27,43C26.8,43,26.6,43,26.4,43L26.4,43z M14.3,43.3h1.3v0.9h-1.3
		L14.3,43.3L14.3,43.3z M13.1,44.6h0.4v1H9.2v-1h0.4c0-0.5,0-1.1,0-1.6c0-0.3,0.1-0.5,0.3-0.7c0.2-0.2,0.5-0.2,0.7-0.2h2.4V44.6
		L13.1,44.6z M10.9,44.6h0.9v-1.7c-0.2,0-0.4,0-0.6,0c-0.1,0-0.3,0-0.3,0.2c0,0,0,0,0,0L10.9,44.6L10.9,44.6z M33.5,42h1.3v3.6h-1.3
		V42L33.5,42z M39.4,44.2c-0.1,0.4-0.2,0.7-0.4,0.9c-0.5,0.5-1.2,0.6-1.8,0.5c-1-0.1-1.7-0.9-1.7-1.9c0-0.7,0.4-1.3,1-1.7
		c0.9-0.5,2.5-0.2,2.8,0.9c0,0.1,0.1,0.2,0.1,0.4l-1.3,0c0-0.3-0.1-0.4-0.4-0.5c-0.4-0.1-0.7,0.1-0.9,0.5c-0.1,0.4-0.1,1.1,0.4,1.2
		c0.2,0.1,0.4,0.1,0.6,0c0.2-0.1,0.2-0.3,0.3-0.5L39.4,44.2L39.4,44.2z M22.2,44.2v0.4h2.2v1h-3.5V42h3.5v1h-2.2v0.3H24v0.9
		L22.2,44.2L22.2,44.2z M20.4,44.2c0,0.1,0,0.2,0,0.2c-0.2,0.6-0.7,1.1-1.3,1.2c-0.3,0.1-0.6,0.1-1,0c-0.7-0.1-1.3-0.6-1.5-1.2
		c-0.2-0.6-0.1-1.4,0.4-1.9c0.5-0.5,1.3-0.7,2-0.5c0.6,0.1,1.1,0.5,1.3,1.1c0,0.1,0,0.2,0,0.3l-1.3,0c0-0.1,0-0.1-0.1-0.2
		c-0.1-0.3-0.6-0.4-0.8-0.2c-0.3,0.1-0.4,0.4-0.4,0.7c0,0.4,0,0.8,0.5,1c0.3,0.1,0.6,0.1,0.8-0.2c0.1-0.1,0.1-0.2,0.1-0.3L20.4,44.2
		L20.4,44.2z M6.5,44.2v0.4h2.2v1H5.2V42h3.5v1H6.5v0.3h1.9v0.9L6.5,44.2L6.5,44.2z"/>
	<rect x="45.2" y="5.3" class="st0" width="80.8" height="40.4"/>
	<g>
		<path class="st1" d="M57.8,20.6h-3.9l-0.7,2.2h-3.1L54.5,11h2.7l4.4,11.9h-3.1L57.8,20.6L57.8,20.6z M54.6,18.4h2.6l-1.3-4.1
			L54.6,18.4L54.6,18.4z M73.6,22.8h-2.9v-9.7h-4.3v9.7h-2.9V11h10L73.6,22.8L73.6,22.8z M85.8,13.2h-3.6v9.7h-2.9v-9.7h-3.5V11h9.9
			V13.2L85.8,13.2z M95.5,17.8H91v2.8h5.3v2.2h-8.2V11h8.2v2.2H91v2.5h4.5L95.5,17.8L95.5,17.8z M102.8,18.1h-1.4v4.7h-2.9V11h2.9
			v4.6h1.1l2.3-4.6h3.5l-3.3,5.5l3.7,6.4h-3.4L102.8,18.1L102.8,18.1z M117.3,20.6h-3.9l-0.7,2.2h-3.1L114,11h2.7l4.4,11.9H118
			L117.3,20.6L117.3,20.6z M114,18.4h2.6l-1.3-4.1L114,18.4z"/>
		<path class="st1" d="M60.9,34.2c0,1.2-0.2,2.2-0.6,3.1c-0.4,0.9-1,1.6-1.8,2.1c-0.8,0.5-1.7,0.7-2.7,0.7c-1,0-1.9-0.2-2.7-0.7
			c-0.8-0.5-1.4-1.1-1.8-2c-0.4-0.9-0.7-1.9-0.7-3v-0.7c0-1.2,0.2-2.2,0.6-3.1c0.4-0.9,1-1.6,1.8-2.1c0.8-0.5,1.7-0.7,2.7-0.7
			c1,0,1.9,0.2,2.7,0.7c0.8,0.5,1.4,1.2,1.8,2c0.4,0.9,0.7,1.9,0.7,3L60.9,34.2L60.9,34.2z M58,33.7c0-1.2-0.2-2.1-0.6-2.7
			c-0.4-0.6-1-0.9-1.7-0.9c-1.4,0-2.2,1.1-2.3,3.2l0,0.9c0,1.2,0.2,2.1,0.6,2.7c0.4,0.6,1,0.9,1.7,0.9c0.7,0,1.3-0.3,1.7-0.9
			c0.4-0.6,0.6-1.5,0.6-2.7V33.7L58,33.7z M74.9,39.9H72l-4.2-7.4v7.4h-2.9V28h2.9l4.2,7.4V28h2.9L74.9,39.9L74.9,39.9z M82.1,37.7
			h5v2.2h-7.8V28h2.9L82.1,37.7L82.1,37.7z M93.9,39.9h-2.9V28h2.9V39.9L93.9,39.9z M108.4,39.9h-2.8l-4.2-7.4v7.4h-2.9V28h2.9
			l4.2,7.4V28h2.9V39.9L108.4,39.9z M120.2,34.8h-4.5v2.8h5.3v2.2h-8.2V28h8.2v2.2h-5.3v2.5h4.5C120.2,32.7,120.2,34.8,120.2,34.8z"
			/>
	</g>
</g>
</svg>
